<?xml version="1.0" encoding="UTF-8" standalone="no"?>
<svg
   width="220"
   height="190"
   viewBox="0 0 220 190"
   version="1.1"
   id="svg934"
   sodipodi:docname="hextacular.svg"
   inkscape:version="1.2.2 (732a01da63, 2022-12-09)"
   xmlns:inkscape="http://www.inkscape.org/namespaces/inkscape"
   xmlns:sodipodi="http://sodipodi.sourceforge.net/DTD/sodipodi-0.dtd"
   xmlns="http://www.w3.org/2000/svg"
   xmlns:svg="http://www.w3.org/2000/svg">
  <defs
     id="defs938" />
  <sodipodi:namedview
     id="namedview936"
     pagecolor="#ffffff"
     bordercolor="#666666"
     borderopacity="1.0"
     inkscape:pageshadow="2"
     inkscape:pageopacity="0.0"
     inkscape:pagecheckerboard="0"
     showgrid="false"
     inkscape:zoom="2.1368421"
     inkscape:cx="49.605911"
     inkscape:cy="94.76601"
     inkscape:window-width="1920"
     inkscape:window-height="991"
     inkscape:window-x="-9"
     inkscape:window-y="-9"
     inkscape:window-maximized="1"
     inkscape:current-layer="svg934"
     inkscape:showpageshadow="2"
     inkscape:deskcolor="#d1d1d1" />
  <g
     fill="#e31337"
     id="g932"
     style="fill:#e31337;fill-opacity:1">
    <path
       d="m 157.27262,107.26394 c 0.72637,0 1.18,0.78752 0.81612,1.41681 l -46.75035,80.84819 C 111.16981,189.82048 110.8588,190 110.52228,190 H 81.944381 c -0.726367,0 -1.179995,-0.78752 -0.816111,-1.41681 L 127.87862,107.735 c 0.16858,-0.29154 0.47959,-0.47106 0.81611,-0.47106 z m -27.7949,-23.173803 c -0.33651,0 -0.64753,-0.179515 -0.81611,-0.471055 L 81.12827,1.4168088 C 80.764386,0.78752151 81.218014,0 81.944381,0 h 28.577899 c 0.33652,0 0.64753,0.17951487 0.81611,0.4710549 l 47.53334,82.2022731 c 0.36388,0.629287 -0.0897,1.416809 -0.81611,1.416809 z"
       id="path928"
       style="fill:#e31337;fill-opacity:1" />
    <path
       d="M 135.12841,1.416352 C 134.76385,0.78706423 135.21893,0 135.94734,0 h 28.61861 c 0.33776,0 0.64989,0.17971418 0.81894,0.47151174 L 219.87301,94.52758 c 0.16932,0.292284 0.16932,0.652556 0,0.94484 l -54.48812,94.05607 C 165.21584,189.82029 164.90371,190 164.56595,190 h -28.61861 c -0.72841,0 -1.18349,-0.78706 -0.81893,-1.41635 L 189.34284,95 Z m -23.25819,93.10773 c 0.17223,0.29267 0.17309,0.654477 0.002,0.947956 L 57.125226,189.52811 c -0.36523,0.62746 -1.277385,0.62961 -1.645617,0.004 L 0.12978361,95.475918 c -0.17222938,-0.29267 -0.17309611,-0.654477 -0.002271,-0.947956 L 54.874774,0.47189426 c 0.36523,-0.62746669 1.277385,-0.62961739 1.645617,-0.00388 z"
       id="path930"
       style="fill:#e31337;fill-opacity:1" />
  </g>
</svg>
